<svg width="21" height="20" viewBox="0 0 21 20" fill="none" xmlns="http://www.w3.org/2000/svg">
<g id="Group">
<g id="Group_2">
<path id="Vector" d="M4.68605 9.99954C4.68605 9.34954 4.79767 8.72681 4.99302 8.14499L1.55116 5.57227C0.876744 6.90408 0.5 8.40408 0.5 9.99954C0.5 11.595 0.876744 13.095 1.55116 14.4314L4.99302 11.8586C4.79767 11.2723 4.68605 10.6495 4.68605 9.99954Z" fill="#FBBC05"/>
</g>
<g id="Group_3">
<path id="Vector_2" d="M10.7329 19.9998C15.8492 19.9998 20.5004 16.3635 20.5004 9.99982C20.5004 9.40891 20.4073 8.77255 20.2678 8.18164H10.7329V12.0453H16.2213C15.7097 14.4998 13.5701 15.9089 10.7329 15.9089C8.04455 15.9089 5.77943 14.2089 4.98874 11.8498L1.54688 14.4271C3.21199 17.7362 6.68641 19.9998 10.7329 19.9998Z" fill="#34A853"/>
</g>
<g id="Group_4">
<path id="Vector_3" d="M10.7322 4.09091C12.174 4.09091 13.4764 4.59091 14.4996 5.40909L17.4764 2.5C15.6624 0.954545 13.3368 0 10.7322 0C6.69032 0 3.21125 2.26364 1.55078 5.56818L4.99264 8.14091C5.78799 5.78636 8.04846 4.09091 10.7322 4.09091Z" fill="#EA4335"/>
</g>
<g id="Group_5">
<path id="Vector_4" d="M20.4999 9.99982C20.4999 9.40891 20.4068 8.77255 20.2673 8.18164H10.7324V12.0453H16.2208C15.9464 13.3635 15.1975 14.3771 14.1324 15.0362L17.4022 17.5089C19.2766 15.7998 20.4999 13.2589 20.4999 9.99982Z" fill="#4285F4"/>
</g>
</g>
</svg>
